# xmcd
#
# Track frame offsets:
#	150
#	18768
#	41750
#	69735
#	89281
#	106384
#	126478
#	151294
#	176295
#	194796
#	222375
#	239290
#	260257
#	279364
#	302452
#	329533
#
# Disc length: 4641 seconds
#
# Revision: 1
# Processed by: cddbd v1.5.1PL2 Copyright (c) Steve Scherf et al.
# Submitted via: audiograbber 1.81.02
#
DISCID=e3121f10
DTITLE=Oakley, Martin, Richards, Gate - 4 x 4 Vol. 4 (www.gerth.de)
DYEAR=2006
DGENRE=Pop
TTITLE0=Extravagant Magnificent
TTITLE1=When The Way Ahead Is Not Clear (Could You)
TTITLE2=We Are Joined By Angels
TTITLE3=Hands On The Cross
TTITLE4=There Is A Voice The Must Be Heard (Jesus Friend Of Sinners)
TTITLE5=Jesus Christ (All My Love)
TTITLE6=I Am Amazed (Your Grace Covers Me)
TTITLE7=Praises (At The Foot Of The Cross)
TTITLE8=Jesus Lover Of My Soul ((It's All About You)
TTITLE9=As High As The Heavens Are Above The Earth (The Voice Of Hope)
TTITLE10=I Have Come To Love You
TTITLE11=I Know You Love An Offering (Led To The Lost)
TTITLE12=How Easy We Forget (Break Our Hearts Again)
TTITLE13=Be Lifted Up
TTITLE14=Glory To Him Who Has Saved (We Crown You Now)
TTITLE15=When We Turn Our Hearts To Heaven (Dreamers Of Your Dreams)
EXTD=
EXTT0=
EXTT1=
EXTT2=
EXTT3=
EXTT4=
EXTT5=
EXTT6=
EXTT7=
EXTT8=
EXTT9=
EXTT10=
EXTT11=
EXTT12=
EXTT13=
EXTT14=
EXTT15=
PLAYORDER=
